<?xml version="1.0" encoding="UTF-8" standalone="no"?><!DOCTYPE svg PUBLIC "-//W3C//DTD SVG 1.1//EN" "http://www.w3.org/Graphics/SVG/1.1/DTD/svg11.dtd"><svg width="100%" height="100%" viewBox="0 0 480 97" version="1.1" xmlns="http://www.w3.org/2000/svg" xmlns:xlink="http://www.w3.org/1999/xlink" xml:space="preserve" xmlns:serif="http://www.serif.com/" style="fill-rule:evenodd;clip-rule:evenodd;stroke-linejoin:round;stroke-miterlimit:2;"><g><path d="M21.267,75.442l8.981,-54.175l21.217,-0c3.965,-0 7.188,0.628 9.671,1.883c2.482,1.256 4.234,2.979 5.256,5.171c1.022,2.192 1.302,4.692 0.84,7.5c-0.313,2.01 -1.039,3.769 -2.176,5.279c-1.138,1.509 -2.539,2.751 -4.203,3.725c-1.665,0.975 -3.469,1.679 -5.413,2.114l0,0.422c2.024,0.084 3.856,0.697 5.495,1.839c1.64,1.142 2.866,2.728 3.679,4.759c0.813,2.031 0.989,4.437 0.528,7.219c-0.449,2.767 -1.53,5.224 -3.243,7.371c-1.713,2.147 -4.023,3.832 -6.931,5.056c-2.908,1.225 -6.398,1.837 -10.47,1.837l-23.231,-0Zm12.638,-9.116l9.285,0c3.295,0 5.854,-0.717 7.674,-2.152c1.821,-1.434 2.906,-3.259 3.255,-5.473c0.238,-1.427 0.09,-2.67 -0.443,-3.727c-0.534,-1.057 -1.408,-1.882 -2.622,-2.475c-1.213,-0.593 -2.732,-0.89 -4.557,-0.89l-10.149,-0l-2.443,14.717Zm3.683,-22.301l8.465,-0c1.574,-0 3.062,-0.315 4.462,-0.945c1.4,-0.63 2.589,-1.525 3.565,-2.686c0.977,-1.161 1.59,-2.528 1.839,-4.1c0.31,-1.809 -0.093,-3.26 -1.206,-4.352c-1.114,-1.093 -2.975,-1.639 -5.585,-1.639l-9.263,0l-2.277,13.722Z" style="fill:#fff;fill-rule:nonzero;"/><path d="M90.628,21.267l-8.981,54.175l-11.11,-0l8.981,-54.175l11.11,-0Z" style="fill:#fff;fill-rule:nonzero;"/><path d="M101.671,63.192l1.05,-10.109c1.448,-2.011 2.852,-3.868 4.212,-5.57c1.36,-1.702 2.817,-3.403 4.37,-5.104c1.553,-1.701 3.32,-3.56 5.301,-5.578l15.85,-15.564l14.19,-0l-27.252,26.465l-0.891,-0.33l-16.83,15.79Zm-10.233,12.25l8.981,-54.175l11.362,-0l-2.462,14.813l-2.505,13.791l-0.692,5.423l-3.322,20.148l-11.362,-0Zm34.422,-0l-11.995,-24.439l7.607,-8.287l16.758,32.726l-12.37,-0Z" style="fill:#fff;fill-rule:nonzero;"/><path d="M144.982,75.442l8.981,-54.175l36.273,-0l-1.529,9.194l-25.163,-0l-2.163,13.093l23.245,-0l-1.509,9.036l-23.261,0l-2.252,13.658l25.235,-0l-1.512,9.194l-36.345,-0Z" style="fill:#fff;fill-rule:nonzero;"/><path d="M190.601,75.442l8.98,-54.175l35.645,-0l-1.528,9.194l-24.536,-0l-2.521,15.16l22.142,0l-1.492,9.036l-22.142,0l-3.439,20.785l-11.109,-0Z" style="fill:#fff;fill-rule:nonzero;"/><path d="M254.394,21.267l-8.981,54.175l-11.11,-0l8.981,-54.175l11.11,-0Z" style="fill:#fff;fill-rule:nonzero;"/><path d="M255.204,75.442l8.98,-54.175l12.285,-0l12.558,27.425c0.602,1.329 1.215,2.806 1.842,4.431c0.627,1.625 1.246,3.457 1.858,5.496c0.612,2.04 1.188,4.349 1.726,6.927l-1.038,-0c0.161,-2.019 0.356,-4.158 0.588,-6.416c0.231,-2.258 0.478,-4.433 0.74,-6.523c0.262,-2.091 0.509,-3.869 0.743,-5.333l4.312,-26.007l11.345,-0l-8.981,54.175l-12.301,-0l-11.422,-24.864c-0.815,-1.82 -1.557,-3.599 -2.226,-5.338c-0.668,-1.74 -1.362,-3.683 -2.08,-5.832c-0.719,-2.148 -1.571,-4.719 -2.557,-7.713l1.293,0c-0.284,2.724 -0.556,5.285 -0.816,7.683c-0.259,2.398 -0.501,4.548 -0.727,6.449c-0.225,1.9 -0.443,3.473 -0.652,4.717l-4.108,24.898l-11.362,-0Z" style="fill:#fff;fill-rule:nonzero;"/><path d="M332.494,75.442l-15.526,-0l1.571,-9.564l13.517,0c3.493,0 6.523,-0.619 9.088,-1.858c2.566,-1.239 4.664,-3.158 6.295,-5.759c1.631,-2.6 2.771,-5.913 3.422,-9.937c0.674,-4.049 0.639,-7.363 -0.106,-9.941c-0.746,-2.578 -2.179,-4.481 -4.299,-5.71c-2.121,-1.228 -4.906,-1.843 -8.355,-1.843l-13.991,0l1.587,-9.563l13.768,-0c5.441,-0 9.997,1.085 13.666,3.254c3.67,2.17 6.287,5.275 7.851,9.318c1.564,4.042 1.873,8.882 0.927,14.518c-0.932,5.657 -2.672,10.507 -5.22,14.549c-2.548,4.042 -5.848,7.142 -9.899,9.3c-4.05,2.157 -8.816,3.236 -14.296,3.236Zm-0.45,-54.175l-8.981,54.175l-11.11,-0l8.981,-54.175l11.11,-0Z" style="fill:#fff;fill-rule:nonzero;"/><path d="M365.694,75.442l8.981,-54.175l36.273,-0l-1.529,9.194l-25.163,-0l-2.163,13.093l23.245,-0l-1.509,9.036l-23.261,0l-2.252,13.658l25.235,-0l-1.512,9.194l-36.345,-0Z" style="fill:#fff;fill-rule:nonzero;"/><path d="M411.313,75.442l8.981,-54.175l21.134,-0c4.135,-0 7.524,0.73 10.165,2.191c2.642,1.461 4.497,3.514 5.565,6.16c1.067,2.645 1.309,5.737 0.723,9.277c-0.585,3.566 -1.86,6.638 -3.823,9.215c-1.963,2.577 -4.525,4.555 -7.685,5.935c-3.16,1.38 -6.822,2.07 -10.988,2.07l-14.313,-0l1.489,-8.992l12.536,0c2.27,0 4.193,-0.31 5.769,-0.93c1.577,-0.621 2.827,-1.543 3.752,-2.767c0.924,-1.224 1.53,-2.734 1.817,-4.531c0.466,-2.793 -0.019,-4.904 -1.456,-6.332c-1.436,-1.428 -3.813,-2.142 -7.132,-2.142l-7.972,0l-7.452,45.021l-11.11,-0Zm30.141,-0l-9.092,-24.652l12.021,-0l9.39,24.652l-12.319,-0Z" style="fill:#fff;fill-rule:nonzero;"/></g></svg>